<svg xmlns="http://www.w3.org/2000/svg" xmlns:xlink="http://www.w3.org/1999/xlink" viewBox="0 0 500 1035"><defs><style>.cls-1{fill:#a01c1c;}.cls-2{fill:url(#radial-gradient);}.cls-3{fill:#c61c1c;}.cls-4{fill:#bacedb;}.cls-5{fill:#fff;}.cls-6{fill:#dce9f4;}</style><radialGradient id="radial-gradient" cx="408.67" cy="155.89" r="34.15" gradientTransform="translate(-42.63 39.48) rotate(-6.92)" gradientUnits="userSpaceOnUse"><stop offset="0" stop-color="#f65730"/><stop offset="1" stop-color="#f44e24"/></radialGradient></defs><g id="OBJECTS"><polygon class="cls-1" points="392.88 193.88 401.17 107.43 388.21 176.93 392.88 193.88"/><polygon class="cls-2" points="352.32 178.19 401.17 107.43 419.07 175.76 352.32 178.19"/><polygon class="cls-3" points="401.17 107.43 374.11 177.4 392.88 193.88 388.21 176.93 401.17 107.43"/><polygon class="cls-4" points="305.24 273.28 346.18 196.68 307.46 255.83 305.24 273.28"/><polygon class="cls-5" points="273.85 243.18 346.18 196.68 336.4 266.64 273.85 243.18"/><polygon class="cls-6" points="346.18 196.68 294.27 250.84 305.24 273.28 307.46 255.83 346.18 196.68"/><polygon class="cls-4" points="305.26 381.61 337.54 300.97 305.56 364.02 305.26 381.61"/><polygon class="cls-5" points="270.76 355.14 337.54 300.97 335.5 371.59 270.76 355.14"/><polygon class="cls-6" points="337.54 300.97 291.89 360.51 305.26 381.61 305.56 364.02 337.54 300.97"/><polygon class="cls-4" points="264.51 577.5 302.71 499.49 266.12 559.98 264.51 577.5"/><polygon class="cls-5" points="232.07 548.52 302.71 499.49 295.42 569.75 232.07 548.52"/><polygon class="cls-6" points="302.71 499.49 252.75 555.45 264.51 577.5 266.12 559.98 302.71 499.49"/><polygon class="cls-4" points="394.05 289.21 405.23 203.08 389.95 272.11 394.05 289.21"/><polygon class="cls-5" points="354.04 272.17 405.23 203.08 420.84 271.98 354.04 272.17"/><polygon class="cls-6" points="405.23 203.08 375.84 272.1 394.05 289.21 389.95 272.11 405.23 203.08"/><polygon class="cls-4" points="395.92 392.52 406.61 306.33 391.72 375.44 395.92 392.52"/><polygon class="cls-5" points="355.81 375.7 406.61 306.33 422.61 375.14 355.81 375.7"/><polygon class="cls-6" points="406.61 306.33 377.61 375.52 395.92 392.52 391.72 375.44 406.61 306.33"/><polygon class="cls-4" points="381.85 573.19 396.05 487.5 378.36 555.95 381.85 573.19"/><polygon class="cls-5" points="342.46 554.75 396.05 487.5 409.23 556.91 342.46 554.75"/><polygon class="cls-6" points="396.05 487.5 364.25 555.45 381.85 573.19 378.36 555.95 396.05 487.5"/><polygon class="cls-4" points="171.33 480.51 227.45 414.22 177.17 463.92 171.33 480.51"/><polygon class="cls-5" points="146.97 444.48 227.45 414.22 203.19 480.56 146.97 444.48"/><polygon class="cls-6" points="227.45 414.22 165.32 456.26 171.33 480.51 177.17 463.92 227.45 414.22"/><polygon class="cls-4" points="224.69 353.05 276.18 283.1 229.38 336.1 224.69 353.05"/><polygon class="cls-5" points="197.93 318.76 276.18 283.1 256.47 350.94 197.93 318.76"/><polygon class="cls-6" points="276.18 283.1 217.04 329.26 224.69 353.05 229.38 336.1 276.18 283.1"/><polygon class="cls-4" points="117.88 398.19 180.69 338.2 125.44 382.31 117.88 398.19"/><polygon class="cls-5" points="97.46 359.8 180.69 338.2 149.55 401.61 97.46 359.8"/><polygon class="cls-6" points="180.69 338.2 114.46 373.45 117.88 398.19 125.44 382.31 180.69 338.2"/><polygon class="cls-4" points="405.17 760.73 392.14 674.86 396.51 745.42 405.17 760.73"/><polygon class="cls-5" points="362.01 755.39 392.14 674.86 426.16 736.77 362.01 755.39"/><polygon class="cls-6" points="392.14 674.86 382.95 749.31 405.17 760.73 396.51 745.42 392.14 674.86"/><polygon class="cls-4" points="120.77 690.68 179.99 627.14 127.4 674.39 120.77 690.68"/><polygon class="cls-5" points="98.16 653.53 179.99 627.14 152.59 692.26 98.16 653.53"/><polygon class="cls-6" points="179.99 627.14 115.92 666.17 120.77 690.68 127.4 674.39 179.99 627.14"/><polygon class="cls-4" points="26.18 473.35 95.68 421.25 35.57 458.47 26.18 473.35"/><polygon class="cls-5" points="10.47 432.79 95.68 421.25 57.22 480.51 10.47 432.79"/><polygon class="cls-6" points="95.68 421.25 25.73 448.37 26.18 473.35 35.57 458.47 95.68 421.25"/></g></svg>