<svg width="293" height="454" viewBox="0 0 293 454" fill="none" xmlns="http://www.w3.org/2000/svg">
<g filter="url(#filter0_d)">
<path d="M265.568 59.2505L271.239 0.280762L262.374 47.6885L265.568 59.2505Z" fill="#A01C1C"/>
<path d="M237.825 48.548L271.239 0.280762L283.482 46.8904L237.825 48.548Z" fill="url(#paint0_radial)"/>
<path d="M271.239 0.280762L252.73 48.0091L265.568 59.2505L262.374 47.6885L271.239 0.280762Z" fill="#C61C1C"/>
<path d="M205.623 113.411L233.626 61.1604L207.141 101.508L205.623 113.411Z" fill="#BACEDB"/>
<path d="M184.152 92.8792L233.626 61.1604L226.936 108.882L184.152 92.8792Z" fill="white"/>
<path d="M233.626 61.1604L198.119 98.1043L205.623 113.411L207.141 101.508L233.626 61.1604Z" fill="#DCE9F4"/>
<path d="M205.636 187.306L227.716 132.299L205.842 175.307L205.636 187.306Z" fill="#BACEDB"/>
<path d="M182.038 169.25L227.716 132.299L226.32 180.471L182.038 169.25Z" fill="white"/>
<path d="M227.716 132.299L196.491 172.913L205.636 187.306L205.842 175.307L227.716 132.299Z" fill="#DCE9F4"/>
<path d="M177.763 320.927L203.892 267.715L178.865 308.977L177.763 320.927Z" fill="#BACEDB"/>
<path d="M155.574 301.159L203.892 267.715L198.906 315.641L155.574 301.159Z" fill="white"/>
<path d="M203.892 267.715L169.72 305.887L177.763 320.927L178.865 308.977L203.892 267.715Z" fill="#DCE9F4"/>
<path d="M266.369 124.278L274.016 65.5261L263.564 112.613L266.369 124.278Z" fill="#BACEDB"/>
<path d="M239.002 112.654L274.016 65.5261L284.693 112.525L239.002 112.654Z" fill="white"/>
<path d="M274.016 65.5261L253.913 112.606L266.369 124.278L263.564 112.613L274.016 65.5261Z" fill="#DCE9F4"/>
<path d="M267.648 194.748L274.96 135.956L264.775 183.097L267.648 194.748Z" fill="#BACEDB"/>
<path d="M240.213 183.275L274.96 135.956L285.904 182.893L240.213 183.275Z" fill="white"/>
<path d="M274.96 135.956L255.124 183.152L267.648 194.748L264.775 183.097L274.96 135.956Z" fill="#DCE9F4"/>
<path d="M258.024 317.987L267.737 259.536L255.637 306.228L258.024 317.987Z" fill="#BACEDB"/>
<path d="M231.081 305.409L267.737 259.536L276.752 306.882L231.081 305.409Z" fill="white"/>
<path d="M267.737 259.536L245.986 305.887L258.024 317.987L255.637 306.228L267.737 259.536Z" fill="#DCE9F4"/>
<path d="M114.028 254.768L152.414 209.55L118.023 243.452L114.028 254.768Z" fill="#BACEDB"/>
<path d="M97.366 230.191L152.414 209.55L135.82 254.802L97.366 230.191Z" fill="white"/>
<path d="M152.414 209.55L109.917 238.227L114.028 254.768L118.023 243.452L152.414 209.55Z" fill="#DCE9F4"/>
<path d="M150.526 167.825L185.746 120.11L153.734 156.263L150.526 167.825Z" fill="#BACEDB"/>
<path d="M132.223 144.434L185.746 120.11L172.264 166.385L132.223 144.434Z" fill="white"/>
<path d="M185.746 120.11L145.294 151.597L150.526 167.825L153.734 156.263L185.746 120.11Z" fill="#DCE9F4"/>
<path d="M77.4684 198.616L120.43 157.695L82.6395 187.783L77.4684 198.616Z" fill="#BACEDB"/>
<path d="M63.5012 172.429L120.43 157.695L99.1307 200.948L63.5012 172.429Z" fill="white"/>
<path d="M120.43 157.695L75.1292 181.74L77.4684 198.616L82.6395 187.783L120.43 157.695Z" fill="#DCE9F4"/>
<path d="M273.975 445.913L265.062 387.339L268.051 435.47L273.975 445.913Z" fill="#BACEDB"/>
<path d="M244.453 442.271L265.062 387.339L288.332 429.57L244.453 442.271Z" fill="white"/>
<path d="M265.062 387.339L258.776 438.124L273.975 445.913L268.051 435.47L265.062 387.339Z" fill="#DCE9F4"/>
<path d="M79.4452 398.131L119.952 354.788L83.9801 387.019L79.4452 398.131Z" fill="#BACEDB"/>
<path d="M63.98 372.79L119.952 354.788L101.21 399.208L63.98 372.79Z" fill="white"/>
<path d="M119.952 354.788L76.1278 381.412L79.4452 398.131L83.9801 387.019L119.952 354.788Z" fill="#DCE9F4"/>
<path d="M14.7456 249.884L62.2836 214.345L21.1684 239.734L14.7456 249.884Z" fill="#BACEDB"/>
<path d="M4 222.217L62.2837 214.345L35.977 254.768L4 222.217Z" fill="white"/>
<path d="M62.2836 214.345L14.4378 232.845L14.7456 249.884L21.1684 239.734L62.2836 214.345Z" fill="#DCE9F4"/>
</g>
<defs>
<filter id="filter0_d" x="0" y="0.280762" width="292.332" height="453.633" filterUnits="userSpaceOnUse" color-interpolation-filters="sRGB">
<feFlood flood-opacity="0" result="BackgroundImageFix"/>
<feColorMatrix in="SourceAlpha" type="matrix" values="0 0 0 0 0 0 0 0 0 0 0 0 0 0 0 0 0 0 127 0"/>
<feOffset dy="4"/>
<feGaussianBlur stdDeviation="2"/>
<feColorMatrix type="matrix" values="0 0 0 0 0 0 0 0 0 0 0 0 0 0 0 0 0 0 0.25 0"/>
<feBlend mode="normal" in2="BackgroundImageFix" result="effect1_dropShadow"/>
<feBlend mode="normal" in="SourceGraphic" in2="effect1_dropShadow" result="shape"/>
</filter>
<radialGradient id="paint0_radial" cx="0" cy="0" r="1" gradientUnits="userSpaceOnUse" gradientTransform="translate(258.021 25.9058) rotate(-6.90122) scale(23.3577 23.2955)">
<stop stop-color="#F65730"/>
<stop offset="1" stop-color="#F44E24"/>
</radialGradient>
</defs>
</svg>
