<svg id="Layer_1" data-name="Layer 1" xmlns="http://www.w3.org/2000/svg" viewBox="0 0 500.21 134.03"><defs><style>.cls-1{fill:#1264af;}</style></defs><path class="cls-1" d="M131.37,77.83a4.14,4.14,0,0,0,3.11-1.16,76.25,76.25,0,0,1,21.18-13.93c.7-.32,1.58-.4,2.19-1.32H-.25v.5C.66,62.13,1,63,1.48,63.59,5,67.8,8.53,72,12,76.3a3.67,3.67,0,0,0,3.15,1.54Q73.24,77.78,131.37,77.83Z" transform="translate(0.25 -20.32)"/><path class="cls-1" d="M342,61.42c8.31,4,16,8.54,22.65,14.74a5.85,5.85,0,0,0,4.42,1.68q57.12-.06,114.24,0a6,6,0,0,0,5.21-2.51c3.74-4.54,7.2-9.32,11.42-13.44v-.5Z" transform="translate(0.25 -20.32)"/><path class="cls-1" d="M276.83,118.58c1.82,0,1.87-.57,1.31-2q-11.2-28.82-22.32-57.67a2.28,2.28,0,0,0-2.59-1.67c-3.74.08-7.5.15-11.24,0-1.87-.08-2.56.68-3.19,2.28q-9.48,24.15-19.1,48.22c-1,2.58-2.08,5.14-3.17,7.83a7.12,7.12,0,0,1-.78-.67c-7.43-9.52-14.83-19.06-22.3-28.55-.88-1.12-.68-1.79.17-2.74,3.23-3.59,6.4-7.24,9.58-10.88,4.37-5,8.74-10,13.52-15.44-4,0-7.4.38-10.66-.08-5.76-.82-9.58,1.36-13,5.91-4.23,5.62-9.18,10.68-14.22,16.45v-3c0-5.75-.06-11.5,0-17.24,0-1.64-.43-2.13-2.08-2.09-4.41.11-8.83.09-13.25,0-1.42,0-1.81.44-1.81,1.84q.06,28.86,0,57.74c0,1.46.49,1.8,1.86,1.78,4.41-.08,8.83-.11,13.25,0,1.72,0,2-.58,2-2.13-.07-7.25-.05-14.49,0-21.74,0-.67-.37-1.47.38-2.11.44.55.86,1.06,1.25,1.59q8.61,11.34,17.2,22.7a3.43,3.43,0,0,0,3,1.69q15.12-.12,30.25,0a2.1,2.1,0,0,0,2.39-1.85c.77-2.72,1.72-5.39,2.5-8.1a2,2,0,0,1,2.26-1.67c6,.07,12,.09,18,0a2.31,2.31,0,0,1,2.63,2c.85,2.69,1.91,5.32,2.76,8a2,2,0,0,0,2.31,1.65C268.16,118.5,272.5,118.48,276.83,118.58ZM254.17,95.77c-4.25,0-8.5,0-12.74,0-1.36,0-1.3-.61-1-1.55l7.16-20c2.6,7.11,5,13.66,7.41,20.2C255.4,95.39,255.27,95.78,254.17,95.77Z" transform="translate(0.25 -20.32)"/><path class="cls-1" d="M282.38,116.73c0,1.4.38,1.88,1.82,1.85,4.42-.08,8.83-.07,13.25,0a2.62,2.62,0,0,0,2.56-1.5c1.55-2.57,3.22-5.06,4.84-7.58l17-26.46.53.17v1.42c0,10.57,0,21.15,0,31.73,0,1.72.39,2.3,2.18,2.24,3.91-.14,7.83-.1,11.75,0,1.46,0,2-.3,2-1.92q-.07-28.74,0-57.47c0-1.55-.48-2-2-2-3.74.09-7.5.14-11.24,0a4.05,4.05,0,0,0-4.16,2.26c-6.6,10.89-13.32,21.7-20,32.52-.45.72-.68,1.68-1.86,2.19v-2c0-10.91,0-21.82,0-32.73,0-1.77-.49-2.26-2.23-2.21-4.16.12-8.33.08-12.5,0-1.32,0-1.9.26-1.9,1.77Q282.46,87.86,282.38,116.73Z" transform="translate(0.25 -20.32)"/><path class="cls-1" d="M398,125.88H318.46c-16.33,0-32.67,0-49,0-1.92,0-2.45.31-1.81,2.32,1.62,5.15,3.06,10.37,4.47,15.58.34,1.23.81,1.73,2.17,1.73q54.51-.06,109,0a2.45,2.45,0,0,0,2.22-.78c5.06-6.14,10.16-12.25,15.32-18.45A5.38,5.38,0,0,0,398,125.88Z" transform="translate(0.25 -20.32)"/><path class="cls-1" d="M113.14,143.46a5,5,0,0,0,4.43,2q51.88-.08,103.76,0c.58,0,1.17,0,1.75,0a1.18,1.18,0,0,0,1.44-1c1.73-6.13,3.5-12.24,5.3-18.5H98.67C103.72,132,108.51,137.68,113.14,143.46Z" transform="translate(0.25 -20.32)"/><path class="cls-1" d="M117,99c.58,0,1.17,0,1.75,0s1-.19,1.15-1a23.2,23.2,0,0,1,7-14.33H17.26c3.87,4.69,7.52,9,11,13.41a4.78,4.78,0,0,0,4.23,1.92Q74.72,99,117,99Z" transform="translate(0.25 -20.32)"/><path class="cls-1" d="M379.81,97.84c.18,1.47,1.12,1.17,2,1.17h86.45c.73,0,1.48.11,2-.59,4-4.79,7.93-9.57,12.21-14.73H372.83A22.8,22.8,0,0,1,379.81,97.84Z" transform="translate(0.25 -20.32)"/><path class="cls-1" d="M216.54,88.73c1.36,2.68,2.67,5.38,4.18,8.46.51-1.19.84-1.94,1.14-2.7,5.15-12.71,10.32-25.41,15.39-38.16a2.56,2.56,0,0,1,2.88-1.94c4.91.11,9.83.13,14.75,0,1.75-.05,2.41.59,3,2.14,4.94,12.88,10,25.73,15,38.58.29.74.32,1.67,1.25,2.15,1-2.19,2-4.42,3.12-6.53a4.49,4.49,0,0,0,.06-4.42c-4.59-10.06-9.08-20.17-13.6-30.26-5.3-11.83-10.6-23.66-16-35.72a4.94,4.94,0,0,0-.48.65Q232,53.91,216.77,86.85C216.5,87.45,216.17,88,216.54,88.73Z" transform="translate(0.25 -20.32)"/><path class="cls-1" d="M126.41,120.75c-2.8-4.89-5.49-9.31-6.42-14.49-.25-1.39-1.38-1-2.2-1q-26.39,0-52.76,0c-.51,0-1.18-.31-1.57.5,3.65,4.41,7.35,8.79,10.94,13.27A4.06,4.06,0,0,0,78,120.79c8.75-.08,17.5,0,26.25,0Z" transform="translate(0.25 -20.32)"/><path class="cls-1" d="M381.31,105.27c-1.23,0-1.59.58-1.77,1.57-.74,4.18-2.77,7.8-4.81,11.44-.42.74-1.24,1.37-.92,2.47h48.53a2.5,2.5,0,0,0,2.22-.81c3.89-4.75,7.82-9.46,12.11-14.64C417.81,105.3,399.56,105.31,381.31,105.27Z" transform="translate(0.25 -20.32)"/><path class="cls-1" d="M261.52,121.05c-1.36.17-1.89-.46-2.22-1.71-.67-2.57-1.61-5.07-2.25-7.64-.34-1.38-.92-1.9-2.37-1.84-2.74.12-5.49,0-8.23,0s-6.4-1.15-8.23.45-1.65,5-2.13,7.73c-.36,2-.88,3.55-3.78,2.88l15.28,33.38c5.12-10.89,10-21.33,15-31.75C263.15,121.33,262.81,120.89,261.52,121.05Z" transform="translate(0.25 -20.32)"/><path class="cls-1" d="M247.57,81.65l-3.79,11.16c2.26,0,4.22,0,6.18,0,1.38.05,1.49-.44,1-1.61C249.86,88.2,248.82,85.15,247.57,81.65Z" transform="translate(0.25 -20.32)"/></svg>