<svg id="Capa_1" enable-background="new 0 0 512 512" height="512" viewBox="0 0 512 512" width="512" xmlns="http://www.w3.org/2000/svg" xmlns:xlink="http://www.w3.org/1999/xlink"><linearGradient id="SVGID_1_" gradientUnits="userSpaceOnUse" x1="0" x2="512" y1="256" y2="256"><stop offset="0" stop-color="#9dd6fc"/><stop offset=".0056" stop-color="#9dd6fc"/><stop offset="1" stop-color="#d17ff7"/></linearGradient><g><g><path d="m492 116h-136v-60c0-11.046-8.954-20-20-20h-160c-11.046 0-20 8.954-20 20v60h-136c-11.046 0-20 8.954-20 20v160c0 11.046 8.954 20 20 20h20v140c0 11.046 8.954 20 20 20h392c11.046 0 20-8.954 20-20v-140h20c11.046 0 20-8.954 20-20v-160c0-11.046-8.954-20-20-20zm-296-40h120v40h-120zm236 360h-352v-120h116v60c0 11.046 8.954 20 20 20h80c11.046 0 20-8.954 20-20v-60h116zm-196-80v-40h40v40zm236-80h-432v-120h432z" fill="url(#SVGID_1_)"/></g></g></svg>